<svg aria-hidden="true" style="position:absolute;width:0;height:0" xmlns="http://www.w3.org/2000/svg" overflow="hidden"><defs>

<symbol id="icon-header-logo" viewBox="0 0 127 32"><path d="M0 0h127.36v32H0V0z"/></symbol>

<symbol id="icon-prod-arrow" viewBox="0 0 32 32"><path d="M0 0h32v32H0V0z"/></symbol>
<symbol id="icon-prod-elipse" viewBox="0 0 139 32"><path fill="var(--color6, #fff)" d="M85.333 16c0 8.837-7.163 16-16 16s-16-7.163-16-16 7.163-16 16-16 16 7.163 16 16zM32 16c0 8.837-7.163 16-16 16S0 24.837 0 16 7.163 0 16 0s16 7.163 16 16zM138.667 16c0 8.837-7.163 16-16 16s-16-7.163-16-16 7.163-16 16-16 16 7.163 16 16z"/></symbol>

<symbol id="icon-adv-icon1" viewBox="0 0 21 32"><path d="M0 0h21.12v32H0V0z"/></symbol>
<symbol id="icon-adv-icon2" viewBox="0 0 32 32"><path d="M0 0h32v32H0V0z"/></symbol>
<symbol id="icon-adv-icon3" viewBox="0 0 28 32"><path d="M0 0h28.16v32H0V0z"/></symbol>

<symbol id="icon-cust-elipse" viewBox="0 0 256 32"><path fill="var(--color1, #c7133e)" d="M144 16c0 8.837-7.163 16-16 16s-16-7.163-16-16 7.163-16 16-16 16 7.163 16 16zM32 16c0 8.837-7.163 16-16 16S0 24.837 0 16 7.163 0 16 0s16 7.163 16 16zM256 16c0 8.837-7.163 16-16 16s-16-7.163-16-16 7.163-16 16-16 16 7.163 16 16z"/></symbol>
<symbol id="icon-cust-home1" viewBox="0 0 35 32"><path fill="var(--color2, #d31342)" d="M34.253 15.613a1.576 1.576 0 00-.129-2.255L19.352.432c-.671-.586-1.745-.574-2.402.028L2.128 14.047a1.567 1.567 0 00-.071 2.252l.372.387c.617.642 1.613.718 2.224.17l1.108-.992v14.523c0 .891.722 1.613 1.612 1.613h5.778c.89 0 1.612-.721 1.612-1.613v-10.16h7.37v10.16c-.013.89.624 1.612 1.515 1.612h6.123c.89 0 1.613-.722 1.613-1.613V16.068l.683.6c.377.332 1.168.066 1.767-.594l.42-.462z"/></symbol>
<symbol id="icon-cust-home2" viewBox="0 0 32 32"><path fill="var(--color3, #d9d9d9)" d="M32 16c0 8.837-7.163 16-16 16S0 24.837 0 16 7.163 0 16 0s16 7.163 16 16z"/></symbol>
<symbol id="icon-cust-quote" viewBox="0 0 43 32"><path fill="var(--color4, #e1e1e1)" d="M32.014 0c1.929 0 3.75.52 5.464 1.561s3.107 2.537 4.179 4.488C42.686 8 43.2 10.298 43.2 12.943s-.643 5.225-1.929 7.74c-.429.911-1.2 2.081-2.314 3.512a63.368 63.368 0 01-3.214 3.707L31.693 32 28.8 27.187a22.03 22.03 0 005.336-4.683c1.543-1.821 2.314-3.491 2.314-5.008 0-.78-.171-1.409-.514-1.886a8.359 8.359 0 01-5.014 1.626c-1.329 0-2.593-.412-3.793-1.236a8.555 8.555 0 01-2.957-3.122c-.771-1.258-1.157-2.558-1.157-3.902 0-1.518.45-2.97 1.35-4.358a10.222 10.222 0 013.407-3.382C29.143.412 30.558 0 32.015 0zM8.936 0c1.929 0 3.75.52 5.464 1.561s3.107 2.537 4.179 4.488c1.029 1.951 1.543 4.249 1.543 6.894 0 1.864-.236 3.534-.707 5.008-.471 1.518-1.286 3.1-2.443 4.748-1.114 1.561-2.164 2.862-3.15 3.902-.986 1.084-2.7 2.884-5.143 5.398l-2.893-4.813a22.03 22.03 0 005.336-4.683c1.543-1.821 2.314-3.491 2.314-5.008 0-.78-.171-1.409-.514-1.886a8.359 8.359 0 01-5.014 1.626c-1.329 0-2.593-.412-3.793-1.236a8.555 8.555 0 01-2.957-3.122C.387 11.619.001 10.319.001 8.975c0-1.518.429-2.97 1.286-4.358S3.28 2.102 4.694 1.235C6.065.411 7.48-.001 8.937-.001z"/></symbol>

<symbol id="icon-footer-facebook" viewBox="0 0 32 32"><path fill="var(--color5, #fea5bb)" d="M16 32c8.837 0 16-7.163 16-16S24.837 0 16 0 0 7.163 0 16s7.163 16 16 16z"/><path fill="var(--color6, #fff)" d="M20.446 15.982h-2.61v9.619h-3.955v-9.619H12v-3.38h1.881v-2.187c0-1.564.739-4.014 3.99-4.014l2.929.012v3.281h-2.125c-.349 0-.839.175-.839.921v1.989h2.955l-.346 3.377z"/></symbol>
<symbol id="icon-footer-github" viewBox="0 0 32 32"><path fill="var(--color5, #fea5bb)" d="M32 16c0 8.837-7.163 16-16 16S0 24.837 0 16 7.163 0 16 0s16 7.163 16 16z"/><path fill="var(--color6, #fff)" d="M16 6.588c-5.169 0-9.412 4.242-9.412 9.412 0 4.411 3.095 8.419 7.206 9.412v-3.114a2.307 2.307 0 01-1.197-.03c-.556-.164-1.008-.535-1.344-1.1-.214-.361-.593-.752-.988-.723l-.097-1.099c.855-.073 1.595.521 2.034 1.259.195.328.419.52.708.605.278.082.578.043.926-.08.088-.698.407-.959.648-1.326v-.001c-2.451-.366-3.428-1.666-3.816-2.693-.514-1.363-.238-3.066.671-4.142.018-.021.05-.076.037-.114-.417-1.258.091-2.299.11-2.41.481.142.559-.143 2.089.786l.264.159c.111.066.076.028.186.02A8.031 8.031 0 0116 11.131a8.016 8.016 0 012.002.285l.086.009c-.007-.001.023-.005.075-.036 1.911-1.157 1.842-.779 2.355-.946.019.111.519 1.169.107 2.411-.056.171 1.657 1.739.708 4.256-.388 1.027-1.365 2.328-3.816 2.693v.001c.314.479.692.734.69 1.722v3.887c4.111-.993 7.206-5 7.206-9.412 0-5.169-4.242-9.412-9.412-9.412z"/></symbol>
<symbol id="icon-footer-telegram" viewBox="0 0 32 32"><path fill="var(--color5, #fea5bb)" d="M32 16c0 8.837-7.163 16-16 16S0 24.837 0 16 7.163 0 16 0s16 7.163 16 16z"/><path fill="var(--color6, #fff)" d="M12.867 18.375l-.318 4.169c.454 0 .651-.182.887-.401l2.13-1.9 4.415 3.017c.81.421 1.38.199 1.599-.695l2.898-12.672.001-.001c.257-1.117-.433-1.554-1.222-1.28L6.225 14.698c-1.162.421-1.145 1.026-.198 1.3l4.355 1.264 10.115-5.907c.476-.294.909-.131.553.163l-8.182 6.857z"/></symbol>

<symbol id="icon-hero16" viewBox="0 0 30 32"><path fill="var(--color6, #fff)" d="M29.922 6.234a6.234 6.234 0 11-12.468 0 6.234 6.234 0 0112.468 0z"/><path fill="var(--color7, #d41443)" d="M8.252 19.905c0 .14-.389.255-1.166.344-.777.076-1.555.115-2.332.115s-1.281-.032-1.51-.096c-.217-.076-.325-.198-.325-.363v-8.258H.969c-.217 0-.325-.465-.325-1.396S.752 8.48.969 7.728c.064-.242.739-.465 2.026-.669s2.275-.306 2.963-.306c.688 0 1.147.025 1.376.076s.401.115.516.191c.115.064.204.14.268.229.089.14.134.274.134.401v12.254zm7.439-7.895c.115-.102.421-.236.918-.401s1.058-.249 1.682-.249c.637 0 1.172.096 1.606.287.446.178.79.408 1.032.688.255.28.452.631.593 1.051.229.688.344 1.389.344 2.103s-.032 1.255-.096 1.625c-.051.357-.191.758-.421 1.204a3.244 3.244 0 01-.898 1.128c-.37.306-.905.567-1.606.784-.688.204-1.498.306-2.428.306-2.001 0-3.511-.548-4.531-1.644-1.02-1.109-1.529-2.893-1.529-5.353 0-2.472.478-4.25 1.434-5.334.956-1.096 2.409-1.644 4.359-1.644 1.338 0 2.498.102 3.479.306.994.191 1.491.421 1.491.688 0 .331-.127.911-.382 1.74-.242.828-.465 1.243-.669 1.243a4.72 4.72 0 01-.573-.096c-.867-.178-1.657-.268-2.37-.268s-1.173.178-1.376.535c-.204.344-.306.854-.306 1.529.051-.064.134-.14.249-.229zm.421 1.72c-.37 0-.554.688-.554 2.065 0 1.364.185 2.045.554 2.045.395 0 .593-.682.593-2.046 0-1.376-.198-2.065-.593-2.065z"/><path fill="var(--color6, #fff)" d="M9.658 30.407c-.275 0-.524-.062-.745-.186a1.422 1.422 0 01-.518-.529c-.124-.229-.186-.495-.186-.797s.062-.566.186-.791c.128-.229.301-.405.518-.529.221-.128.469-.192.745-.192.341 0 .628.089.861.268.237.178.386.417.448.716h-.5a.633.633 0 00-.285-.413.93.93 0 00-.529-.151.904.904 0 00-.809.489c-.089.163-.134.365-.134.605s.045.442.134.605a.952.952 0 00.349.372.923.923 0 00.46.122.964.964 0 00.529-.145.655.655 0 00.285-.425h.5c-.058.291-.206.527-.442.71s-.526.273-.867.273zm2.952 0c-.241 0-.44-.041-.599-.122a.83.83 0 01-.471-.768c0-.295.113-.522.337-.681s.531-.239.919-.239h.78v-.035c0-.252-.066-.442-.198-.57-.132-.132-.308-.198-.529-.198a.854.854 0 00-.495.145.617.617 0 00-.256.413h-.5a.934.934 0 01.209-.529c.124-.143.277-.252.46-.326.182-.078.376-.116.582-.116.403 0 .706.109.908.326.206.213.308.498.308.855v1.775h-.436l-.029-.518a1.152 1.152 0 01-.361.419c-.155.113-.365.169-.628.169zm.075-.413a.79.79 0 00.477-.145c.136-.097.239-.223.308-.378s.105-.318.105-.489v-.006h-.739c-.287 0-.491.05-.611.151a.459.459 0 00-.175.367.46.46 0 00.163.367c.113.089.27.134.471.134zm2.27.344v-2.473h-.436v-.413h.436v-.5c0-.279.07-.483.209-.611s.343-.192.611-.192h.291v.419h-.215c-.147 0-.252.031-.314.093-.062.058-.093.159-.093.303v.489h.71v.413h-.71v2.473h-.489zm2.964.069c-.275 0-.52-.062-.733-.186a1.391 1.391 0 01-.506-.529 1.671 1.671 0 01-.18-.797c0-.303.06-.566.18-.791a1.29 1.29 0 01.5-.529 1.45 1.45 0 01.751-.192c.279 0 .52.064.721.192.206.124.363.289.471.495a1.408 1.408 0 01.157.791v.145h-2.298c.012.221.062.405.151.553a.952.952 0 00.343.326c.14.074.287.111.442.111.202 0 .37-.047.506-.14s.235-.219.297-.378h.483a1.311 1.311 0 01-.448.669c-.217.175-.497.262-.838.262zm0-2.612a.984.984 0 00-.623.215c-.178.14-.281.345-.308.617h1.815c-.012-.26-.101-.463-.268-.611s-.372-.221-.617-.221zm3.12 2.612c-.345 0-.632-.087-.861-.262s-.363-.411-.401-.71h.5a.713.713 0 00.239.396c.132.109.308.163.529.163.206 0 .357-.043.454-.128a.413.413 0 00.145-.314c0-.175-.064-.291-.192-.349a2.436 2.436 0 00-.529-.157c-.155-.031-.31-.076-.465-.134s-.285-.14-.39-.244a.586.586 0 01-.157-.425c0-.252.093-.458.279-.617.19-.163.446-.244.768-.244.306 0 .557.078.751.233.198.151.312.369.343.652h-.483a.485.485 0 00-.192-.343.655.655 0 00-.425-.128c-.175 0-.31.037-.407.111a.354.354 0 00-.14.291c0 .116.06.207.18.273.124.066.291.122.5.169.178.039.347.087.506.145a.904.904 0 01.396.25c.105.109.157.268.157.477a.793.793 0 01-.297.646c-.198.167-.467.25-.809.25z"/></symbol>
<symbol id="icon-hero23" viewBox="0 0 39 32"><path fill="var(--color6, #fff)" d="M38.737 6.316a6.316 6.316 0 11-12.633 0 6.316 6.316 0 0112.633 0z"/><path fill="var(--color7, #d41443)" d="M8.601 11.475c-.362 0-.678-.426-.949-1.278a8.478 8.478 0 01-.387-2.46c0-.181.2-.381.6-.6.4-.232 1.007-.439 1.821-.62s1.698-.271 2.653-.271c3.706 0 5.559 1.298 5.559 3.893 0 .723-.155 1.401-.465 2.034s-.652 1.143-1.027 1.53a7.821 7.821 0 01-1.317 1.046 10.09 10.09 0 01-1.666.852h3.874c.077 0 .161.039.252.116.09.065.187.271.291.62.103.336.155.762.155 1.278 0 .504-.032.93-.097 1.278-.065.336-.142.581-.232.736-.194.349-.368.536-.523.562l-.097.019H8.563c-.813 0-1.22-1.272-1.22-3.816 0-.284.839-1.065 2.518-2.344.633-.465 1.214-.975 1.743-1.53s.794-1.007.794-1.356c0-.387-.291-.581-.872-.581s-1.194.149-1.84.445c-.633.297-.994.445-1.085.445zm21.794-1.607c0 1.304-.517 2.279-1.549 2.925.142.065.323.22.542.465.232.245.426.491.581.736.4.633.6 1.382.6 2.247 0 1.42-.51 2.466-1.53 3.138s-2.421 1.007-4.203 1.007a14.08 14.08 0 01-2.499-.213c-.775-.155-1.369-.323-1.782-.504-.413-.194-.62-.368-.62-.523 0-.71.077-1.336.232-1.879s.329-.923.523-1.143c.194-.232.381-.349.562-.349.052 0 .394.116 1.027.349s1.252.349 1.859.349c.62 0 .93-.194.93-.581 0-.529-.652-.813-1.956-.852-.517-.013-.801-.026-.852-.039-.271-.09-.407-.659-.407-1.704s.136-1.62.407-1.724c.052-.026.336-.039.852-.039 1.304-.026 1.956-.291 1.956-.794 0-.387-.284-.581-.852-.581-.555 0-1.175.136-1.859.407s-1.059.407-1.123.407c-.297 0-.568-.433-.813-1.298s-.368-1.478-.368-1.84c0-.336.374-.678 1.123-1.027.826-.374 2.04-.562 3.641-.562 3.719 0 5.578 1.207 5.578 3.622z"/><path fill="var(--color6, #fff)" d="M.736 30.316v-2.505H.294v-.419h.442v-.507c0-.283.071-.489.212-.619s.348-.195.619-.195h.295v.424h-.218c-.149 0-.255.031-.318.094-.063.059-.094.161-.094.307v.495h.719v.419h-.719v2.505H.737zm3.021.071c-.275 0-.523-.063-.743-.189s-.395-.303-.525-.531c-.126-.232-.189-.503-.189-.813s.065-.58.195-.808c.13-.232.305-.411.525-.536.224-.126.474-.189.749-.189s.523.063.743.189c.22.126.393.305.519.536.13.228.195.497.195.808s-.065.582-.195.813c-.13.228-.307.405-.531.531-.22.126-.468.189-.743.189zm0-.425a.926.926 0 00.826-.495c.09-.165.136-.369.136-.613s-.045-.448-.136-.613c-.086-.165-.202-.289-.348-.371s-.301-.124-.466-.124a.926.926 0 00-.826.495c-.09.165-.136.369-.136.613s.045.448.136.613c.09.165.206.289.348.371a.924.924 0 00.466.124zm3.489.425c-.275 0-.523-.063-.743-.189s-.395-.303-.525-.531c-.126-.232-.189-.503-.189-.813s.065-.58.195-.808c.13-.232.305-.411.525-.536.224-.126.474-.189.749-.189s.523.063.743.189c.22.126.393.305.519.536.13.228.195.497.195.808s-.065.582-.195.813c-.13.228-.307.405-.531.531-.22.126-.468.189-.743.189zm0-.425a.926.926 0 00.826-.495c.09-.165.136-.369.136-.613s-.045-.448-.136-.613c-.086-.165-.202-.289-.348-.371s-.301-.124-.466-.124a.926.926 0 00-.826.495c-.09.165-.136.369-.136.613s.045.448.136.613c.09.165.206.289.348.371a.924.924 0 00.466.124zm3.482.425a1.45 1.45 0 01-.766-.2 1.396 1.396 0 01-.507-.548c-.118-.232-.177-.495-.177-.79s.061-.556.183-.784c.122-.232.291-.413.507-.542.216-.134.472-.2.766-.2.24 0 .452.049.637.147s.328.236.43.413v-1.81h.495v4.244h-.448l-.047-.483c-.094.141-.23.269-.407.383s-.399.171-.666.171zm.053-.431a.98.98 0 00.519-.136.945.945 0 00.354-.389c.086-.165.13-.358.13-.578s-.043-.413-.13-.578a.9.9 0 00-.354-.383.952.952 0 00-.519-.141.958.958 0 00-.873.524c-.083.165-.124.358-.124.578s.041.413.124.578a.987.987 0 00.354.389c.153.09.326.136.519.136zm5.038.36c-.267 0-.477-.065-.631-.195s-.23-.363-.23-.701v-1.609h-.507v-.419h.507l.065-.701h.43v.701h.861v.419h-.861v1.609c0 .185.037.31.112.377.075.063.206.094.395.094h.307v.424h-.448zm1.124 0v-2.924h.448l.041.56c.09-.193.228-.346.413-.46s.413-.171.684-.171v.519h-.136c-.173 0-.332.031-.477.094-.145.059-.261.161-.348.307s-.13.346-.13.601v1.474h-.495zm4.7-2.924v2.924h-.448l-.029-.525c-.094.185-.23.33-.407.436s-.377.159-.601.159c-.346 0-.623-.104-.831-.312-.204-.212-.307-.536-.307-.973v-1.709h.495v1.656c0 .609.252.914.755.914.252 0 .46-.09.625-.271.169-.185.253-.446.253-.784v-1.515h.495zm2.159 2.995c-.279 0-.531-.063-.755-.189a1.437 1.437 0 01-.525-.536c-.126-.232-.189-.501-.189-.808s.063-.574.189-.802c.13-.232.305-.411.525-.536.224-.13.476-.195.755-.195.346 0 .637.09.872.271.24.181.391.422.454.725h-.507a.641.641 0 00-.289-.419.944.944 0 00-.536-.153.926.926 0 00-.82.495c-.09.165-.136.369-.136.613s.045.448.136.613c.09.165.208.291.354.377a.924.924 0 00.466.124.973.973 0 00.536-.147.664.664 0 00.289-.43h.507c-.059.295-.208.534-.448.719s-.532.277-.878.277zm2.018-.071v-4.244h.495v2.552l1.197-1.232h.607l-1.297 1.32 1.462 1.603h-.631L26.315 28.8v1.515h-.495zm3.917.071c-.35 0-.641-.088-.872-.265s-.367-.417-.407-.719h.507a.716.716 0 00.242.401c.134.11.312.165.536.165.208 0 .362-.043.46-.13a.42.42 0 00.147-.318c0-.177-.065-.295-.195-.354a2.484 2.484 0 00-.536-.159c-.157-.031-.314-.077-.472-.136s-.289-.141-.395-.248a.593.593 0 01-.159-.43c0-.255.094-.464.283-.625.193-.165.452-.248.778-.248.31 0 .564.079.76.236.2.153.316.373.348.66h-.489a.496.496 0 00-.195-.348.664.664 0 00-.43-.13c-.177 0-.314.037-.413.112a.359.359 0 00-.141.295c0 .118.061.21.183.277.126.067.295.124.507.171.181.039.352.088.513.147a.92.92 0 01.401.253c.106.11.159.271.159.483a.802.802 0 01-.301.654c-.2.169-.474.253-.819.253z"/></symbol>
<symbol id="icon-hero-arrow" viewBox="0 0 32 32"><path d="M0 0h32v32H0V0z"/></symbol>

<symbol id="icon-mob-burger" viewBox="0 0 46 32"><path fill="none" stroke="var(--color7, #d41443)" stroke-width="2.286" d="M0 2.286h45.714M0 16h45.714M0 29.714h45.714"/></symbol>
<symbol id="icon-mob-close" viewBox="0 0 32 32"><path fill="none" stroke="var(--color6, #fff)" stroke-width="2" d="M2.519 2l26.963 28M2 29.481L30 2.518"/></symbol>



<symbol id="icon-tab-burger" viewBox="0 0 46 32"><path fill="none" stroke="var(--color7, #d41443)" stroke-width="2.286" d="M0 2.286h45.714M0 16h45.714M0 29.714h45.714"/></symbol>
<symbol id="icon-tab-close" viewBox="0 0 32 32"><path fill="none" stroke="var(--color6, #fff)" stroke-width="2" d="M2.519 2l26.963 28M2 29.481L30 2.518"/></symbol>
<symbol id="icon--1" viewBox="0 0 2 32"><path stroke-width="2" d="M1 0v32"/></symbol></defs></svg>